PathFileType	4	(X/Y/Z)	\\147.46.242.158\로컬 디스크 (e)\MOCAP Data\Iguana Capture\iguana\Project 2\Capture day 5 after broken\Session 1\Take01 ddong.trc
DataRate	CameraRate	NumFrames	NumMarkers	Units	OrigDataRate	OrigDataStartFrame	OrigNumFrames
120.0	120.0	7	23	mm	120.0	100	23111
Frame#	Time	ana:head1			ana:head2			ana:bone1			ana:bone2			ana:bone3			ana:tail1			ana:tail2			ana:tail3			ana:tail4			ana:Rforefoot1			ana:Rforefoot2			ana:Rforefoot3			ana:Lforefoot1			ana:Lforefoot2			ana:Lforefoot3			ana:RhindLeg1			ana:RhindLeg2			ana:RhindLeg3			ana:RhindLeg4			ana:LhindLeg1			ana:LhindLeg2			ana:LhindLeg3			ana:LhindLeg4			
		X1	Y1	Z1	X2	Y2	Z2	X3	Y3	Z3	X4	Y4	Z4	X5	Y5	Z5	X6	Y6	Z6	X7	Y7	Z7	X8	Y8	Z8	X9	Y9	Z9	X10	Y10	Z10	X11	Y11	Z11	X12	Y12	Z12	X13	Y13	Z13	X14	Y14	Z14	X15	Y15	Z15	X16	Y16	Z16	X17	Y17	Z17	X18	Y18	Z18	X19	Y19	Z19	X20	Y20	Z20	X21	Y21	Z21	X22	Y22	Z22	X23	Y23	Z23	

7326	61.042	484.00964	141.21330	50.88432	491.54657	133.35252	51.85086	507.64859	119.71782	44.63834	530.88391	103.50359	42.65362	563.00745	86.40347	35.50445	590.22534	73.49854	26.93187	620.84167	61.94727	16.06356	656.18140	60.18840	5.09779	696.41162	66.31998	3.11155	512.78082	131.42897	27.54492	522.79803	136.65367	16.62337	514.05286	138.99141	1.90329	496.07892	112.67013	31.07702	490.55032	100.79885	30.67873	481.38217	109.57941	19.73793	567.19080	93.73315	28.53589	578.34210	106.26794	26.52207	595.97571	100.26298	21.95757	593.02844	105.34334	10.45149	556.10687	76.35622	26.51992	545.32904	64.92240	18.24281	555.77582	61.30500	3.23479	543.84766	61.82824	1.26958	
7327	61.050	483.62564	141.37051	50.87259	491.14954	133.50650	51.79941	507.16626	119.84859	44.58583	530.34204	103.50123	42.64206	562.56628	86.53391	35.55080	589.88763	73.82621	26.96155	620.46838	62.24269	16.05816	655.80243	60.31227	5.13003	696.03876	66.17098	3.11515	512.49243	131.51753	27.55467	522.61102	136.63313	16.69313	514.02264	138.98672	1.90397	495.38721	113.04438	30.80347	489.24463	101.49770	29.87221	480.14026	110.26281	18.75345	566.58649	93.95705	28.72771	577.35992	106.82131	27.16180	595.00342	100.68801	22.83914	592.39044	105.59272	11.06616	555.78131	76.44003	26.55517	545.21210	64.86243	18.17719	555.71613	61.22927	3.32295	543.77637	61.80083	1.36356	
7328	61.058	483.23309	141.50771	50.85038	490.74774	133.62929	51.73083	506.69376	119.95839	44.52305	529.81390	103.49869	42.61446	562.13287	86.67277	35.57916	589.58221	74.18602	26.97082	620.12000	62.56750	16.04597	655.45215	60.45923	5.16281	695.69659	66.03511	3.11829	512.20557	131.59691	27.56138	522.41974	136.61224	16.72656	514.01080	138.98209	1.91081	494.72049	113.40502	30.51395	487.99966	102.23141	29.01591	478.93747	110.91288	17.66614	565.97919	94.22202	28.91586	576.28992	107.44701	27.83799	593.88196	101.14909	23.76383	591.74396	105.84533	11.68496	555.47729	76.53545	26.57555	545.10492	64.82624	18.11835	555.65833	61.16747	3.40332	543.71204	61.77816	1.45209	
7329	61.067	482.82864	141.62555	50.81362	490.34024	133.72316	51.64658	506.23285	120.04700	44.44991	529.30145	103.49860	42.57116	561.70667	86.82172	35.59150	589.30560	74.57985	26.96124	619.79626	62.92165	16.03011	655.12842	60.62563	5.19386	695.38617	65.90990	3.12092	511.91907	131.66748	27.56118	522.22681	136.59201	16.72603	514.01648	138.97758	1.92312	494.08521	113.74416	30.20602	486.83752	102.97803	28.11254	477.80795	111.51894	16.48992	565.36542	94.52654	29.09208	575.13434	108.13380	28.54430	592.59723	101.61237	24.70299	591.09528	106.09875	12.30481	555.19482	76.64339	26.57964	545.00684	64.81470	18.06380	555.60541	61.12418	3.47103	543.65900	61.76142	1.52833	
7330	61.075	482.40955	141.72472	50.75900	489.92630	133.79196	51.54928	505.78400	120.11543	44.36635	528.80548	103.50269	42.51272	561.28607	86.98220	35.58939	589.05243	75.00725	26.93519	619.49493	63.30357	16.01335	654.82654	60.80680	5.22067	695.10608	65.79222	3.12307	511.63104	131.72932	27.54985	522.03387	136.57278	16.69823	514.03687	138.97362	1.93953	493.48553	114.05422	29.87824	485.77704	103.71314	27.16818	476.78220	112.06866	15.24398	564.74139	94.86565	29.24820	573.89825	108.86466	29.27262	591.14532	102.04041	25.62324	590.45087	106.35056	12.92258	554.93268	76.76409	26.56667	544.91724	64.82675	18.01083	555.55994	61.10107	3.52283	543.62000	61.75078	1.58756	
7331	61.083	481.97427	141.80582	50.68439	489.50571	133.84053	51.44234	505.34662	120.16565	44.27232	528.32599	103.51146	42.43994	560.86829	87.15508	35.57361	588.81561	75.46507	26.89573	619.21289	63.71020	15.99780	654.54059	60.99762	5.24078	694.85333	65.67846	3.12482	511.33942	131.78227	27.52344	521.84216	136.55431	16.65321	514.06763	138.97105	1.95829	492.92343	114.32856	29.53061	484.83228	104.41187	26.19266	475.88428	112.54951	13.95208	564.10406	95.23119	29.37747	572.58807	109.61759	30.01347	589.53394	102.39774	26.48968	589.81720	106.59833	13.53517	554.68793	76.89696	26.53660	544.83527	64.85934	17.95690	555.52399	61.09664	3.55761	543.59576	61.74558	1.62778	
7332	61.092	481.52325	141.86916	50.58917	489.07880	133.87405	51.32959	504.91882	120.20035	44.16789	527.86163	103.52424	42.35390	560.44977	87.34038	35.54383	588.58771	75.94736	26.84637	618.94550	64.13703	15.98471	654.26410	61.19305	5.25210	694.62305	65.56488	3.12624	511.04205	131.82578	27.47893	521.65155	136.53560	16.60311	514.10321	138.97102	1.97770	492.39853	114.56191	29.16497	484.01181	105.05095	25.19949	475.12997	112.95068	12.64154	563.45148	95.61221	29.47576	571.21112	110.36698	30.75659	587.78296	102.65662	27.26938	589.20068	106.83964	14.13949	554.45679	77.04044	26.49003	544.76007	64.90760	17.89998	555.49860	61.10651	3.57651	543.58521	61.74440	1.64981	
